<svg width="62" height="60" viewBox="0 0 62 60" fill="none" xmlns="http://www.w3.org/2000/svg">
<path d="M16 7.49964L17.9318 11.5906H43.2727L44.8636 7.49964M16 7.49964L30.0909 1.36328L44.8636 7.49964M16 7.49964H44.8636M23.3864 49.4315V34.0906L30.0909 30.5678L36.7955 34.0906V49.4315M22.7045 15.7951V21.2496M27.9318 15.7951V21.2496M32.25 15.7951V21.2496M36.7955 15.7951V21.2496M22.7045 24.0906V28.8633M27.9318 24.0906V28.8633M32.25 24.0906V28.8633M36.7955 24.0906V28.8633M27.1364 49.4315V38.2951H33.0455V49.4315" stroke="black" stroke-linecap="round"/>
<path d="M43.2734 11.5906V14.9997M43.2734 14.9997V52.9542M43.2734 14.9997H46.0844V17.6133H50.3572V14.9997H53.9553V46.5906M46.6466 21.7042V25.3406M50.3572 21.7042V25.3406M46.6466 28.8633V34.0906M50.3572 28.8633V34.0906M46.6466 38.2951V42.9542M50.3572 38.2951V42.9542" stroke="black" stroke-linecap="round"/>
<path d="M18.046 11.5906V14.9997M18.046 14.9997H15.235V17.6133H10.9623V14.9997H7.36417V19.0906M18.046 14.9997V19.0906M18.046 52.9542V19.0906M7.36417 46.5906V19.0906M14.6728 21.7042V25.3406M10.9623 21.7042V25.3406M14.6728 28.8633V34.0906M10.9623 28.8633V34.0906M14.6728 38.2951V42.9542M10.9623 38.2951V42.9542M7.36417 19.0906H18.046M43.3869 19.0906H53.9551" stroke="black" stroke-linecap="round"/>
<path d="M44.8643 58.6359H49.1518M60.7733 58.6359H49.1518M49.1518 58.6359C49.1518 58.6359 49.1518 56.5787 49.1518 55.2606M49.1518 55.2606C46.2182 55.2606 46.2182 47.3848 49.1518 47.3848C52.0854 47.3848 52.0854 55.2606 49.1518 55.2606Z" stroke="black" stroke-linecap="round"/>
<path d="M56.2041 58.5233C56.2041 58.5233 56.2041 56.4662 56.2041 55.148M56.2041 55.148C53.2705 55.148 53.2705 47.2722 56.2041 47.2722C59.1377 47.2722 59.1377 55.148 56.2041 55.148Z" stroke="black" stroke-linecap="round"/>
<path d="M17.1367 58.6359H12.8492M1.22763 58.6359H12.8492M12.8492 58.6359C12.8492 58.6359 12.8492 56.5787 12.8492 55.2606M12.8492 55.2606C15.7828 55.2606 15.7828 47.3848 12.8492 47.3848C9.91557 47.3848 9.91557 55.2606 12.8492 55.2606Z" stroke="black" stroke-linecap="round"/>
<path d="M5.79688 58.5233C5.79688 58.5233 5.79688 56.4662 5.79688 55.148M5.79688 55.148C8.73047 55.148 8.73047 47.2722 5.79688 47.2722C2.86329 47.2722 2.86329 55.148 5.79688 55.148Z" stroke="black" stroke-linecap="round"/>
</svg>
