<svg width="40" height="40" viewBox="0 0 40 40" fill="none" xmlns="http://www.w3.org/2000/svg">
<path d="M8.33328 13.3796V8.35185C8.33328 6.49995 9.83373 5 11.6862 5H33.4803C35.3328 5 36.8333 6.49995 36.8333 8.35185V31.8148C36.8333 33.6667 35.3328 35.1667 33.4803 35.1667H20.0686H10.3333C9.22871 35.1667 8.33328 34.2712 8.33328 33.1667V30.8333" stroke="black" stroke-linecap="round" stroke-linejoin="round"/>
<path d="M22.4999 11.6666C24.8016 11.6666 26.6666 13.5316 26.6666 15.8333C26.6666 18.135 24.8016 20 22.4999 20C20.1983 20 18.3333 18.135 18.3333 15.8333C18.3333 13.5316 20.1983 11.6666 22.4999 11.6666" stroke="black" stroke-linecap="round" stroke-linejoin="round"/>
<path d="M29.9999 30C29.7816 28.5378 29.4433 27.2223 29.0099 26.1512V26.1512C28.2783 24.3378 27.3199 23.3334 26.3199 23.3334C24.6533 23.3334 20.3466 23.3334 18.6799 23.3334C17.6799 23.3334 16.7233 24.3423 15.9899 26.1512V26.1512C15.5566 27.2223 15.2183 28.5378 14.9999 30" stroke="black" stroke-linecap="round" stroke-linejoin="round"/>
<path d="M10.9731 19.4537H13.3308V17.0944" stroke="black" stroke-linecap="round" stroke-linejoin="round"/>
<path d="M5.69926 24.5575H3.34161V26.9168" stroke="black" stroke-linecap="round" stroke-linejoin="round"/>
<path d="M13.3358 23.7838C13.0857 24.5108 12.6922 25.1977 12.1103 25.778C10.0261 27.8622 6.64637 27.8622 4.56217 25.778C4.19202 25.4078 3.89023 24.9943 3.65179 24.5558" stroke="black" stroke-linecap="round" stroke-linejoin="round"/>
<path d="M13.0223 19.452C12.7839 19.0134 12.4821 18.6016 12.1119 18.2298C10.0277 16.1456 6.648 16.1456 4.56379 18.2298C3.98189 18.8117 3.58339 19.497 3.33328 20.2239" stroke="black" stroke-linecap="round" stroke-linejoin="round"/>
</svg>
